<svg width="24" height="24" viewBox="0 0 24 24" fill="none" xmlns="http://www.w3.org/2000/svg">
<mask id="mask0_2206_6103" style="mask-type:alpha" maskUnits="userSpaceOnUse" x="0" y="0" width="24" height="24">
<rect width="24" height="24" fill="#D9D9D9"/>
</mask>
<g mask="url(#mask0_2206_6103)">
<path d="M6.93594 21.2023C6.30627 21.2023 5.76969 20.9806 5.32619 20.5371C4.88269 20.0936 4.66094 19.557 4.66094 18.9273V6.06484H3.52344V3.78984H8.86419V2.65234H15.1272V3.78984H20.4799V6.06484H19.3424V18.9273C19.3424 19.557 19.1207 20.0936 18.6772 20.5371C18.2337 20.9806 17.6971 21.2023 17.0674 21.2023H6.93594ZM17.0674 6.06484H6.93594V18.9273H17.0674V6.06484ZM8.89419 16.9931H11.0317V7.99309H8.89419V16.9931ZM12.9717 16.9931H15.1092V7.99309H12.9717V16.9931Z" fill="white"/>
</g>
</svg>
