<svg width="360" height="45" viewBox="0 0 360 45" fill="none" xmlns="http://www.w3.org/2000/svg">
<g clip-path="url(#clip0_2111_5878)">
<path fill-rule="evenodd" clip-rule="evenodd" d="M32.146 0.9664C32.784 0.9664 33.3054 1.4284 33.3054 2.0708V42.8764C33.3037 43.1834 33.181 43.4773 32.9639 43.6943C32.7469 43.9114 32.453 44.0341 32.146 44.0358H26.4018C26.0949 44.0341 25.801 43.9114 25.5839 43.6943C25.3669 43.4773 25.2442 43.1834 25.2424 42.8764V25.14H8.76442V42.8764C8.76268 43.1837 8.63967 43.478 8.42214 43.6951C8.20461 43.9122 7.91016 44.0346 7.60282 44.0358H1.86082C1.55348 44.0346 1.25902 43.9122 1.0415 43.6951C0.823966 43.478 0.700956 43.1837 0.699219 42.8764V2.0708C0.699219 1.4284 1.22062 0.9664 1.85862 0.9664H7.60282C8.24082 0.9664 8.76442 1.4284 8.76442 2.0708V18.0648H25.2424V2.0708C25.2424 1.4284 25.7638 0.9664 26.4018 0.9664H32.146ZM53.0944 25.4304H63.3046L59.1268 8.211C58.953 7.518 58.7792 7.2848 58.1984 7.2848C57.6198 7.2848 57.446 7.518 57.2722 8.211L53.0922 25.4282L53.0944 25.4304ZM66.2636 6.4136L75.7808 42.7576C75.7808 42.8742 75.838 42.9908 75.838 43.048C75.838 43.6288 75.3738 44.038 74.7952 44.038H68.6418C68.1226 44.038 67.6562 43.5716 67.5418 43.048L64.871 32.0392H51.528L48.8572 43.048C48.7406 43.5716 48.2764 44.038 47.7528 44.038H41.606C41.0252 44.038 40.5588 43.6288 40.5588 43.048C40.5588 42.9908 40.616 42.8742 40.616 42.7598L50.1332 6.4136C51.528 1.0236 55.7058 0.5 58.1984 0.5C60.6932 0.5 64.871 1.0258 66.2636 6.4136ZM107.461 1.314C108.332 1.4284 108.622 1.7166 108.622 2.5284V6.242C108.621 6.54972 108.499 6.8445 108.281 7.0621C108.063 7.27969 107.769 7.40244 107.461 7.4036H95.6248C92.2588 7.4036 91.0422 8.5608 91.0422 12.3888V18.65H106.763C107.404 18.65 107.923 19.1714 107.923 19.8072V23.9806C107.923 24.6186 107.404 25.14 106.763 25.14H91.0422V32.6156C91.0422 36.4436 92.2588 37.6008 95.6248 37.6008H107.461C107.769 37.602 108.063 37.7247 108.281 37.9423C108.499 38.1599 108.621 38.4547 108.622 38.7624V42.4716C108.622 43.2856 108.332 43.5738 107.461 43.6882C105.606 43.9786 103.342 44.5022 96.4344 44.5022C88.8928 44.5022 83.0364 42.4716 83.0364 32.6156V12.3866C83.0342 2.5306 88.8906 0.5 96.4322 0.5C103.34 0.5 105.606 1.0236 107.461 1.314ZM144.19 36.9606C144.828 36.9606 145.349 37.3676 145.349 38.0034V42.8742C145.348 43.1813 145.226 43.4756 145.008 43.6927C144.791 43.9099 144.497 44.0324 144.19 44.0336H118.833C117.15 44.0336 115.876 43.4528 115.876 41.8908V38.7008C115.876 38.0034 116.052 37.3676 116.63 36.4986L135.022 8.9634C135.131 8.8118 135.191 8.63069 135.194 8.4442C135.194 8.1516 135.02 7.98 134.618 7.98H118.485C117.847 7.98 117.385 7.573 117.385 6.9372V2.0686C117.385 1.4306 117.847 0.9642 118.485 0.9642H141.867C143.55 0.9642 144.942 1.6616 144.942 3.1708V6.5324C144.942 7.3398 144.592 8.211 144.13 8.9084L126.033 35.9794C125.887 36.1608 125.805 36.3848 125.798 36.6174C125.798 36.8462 125.914 36.9628 126.321 36.9628H144.192L144.19 36.9606ZM177.553 26.4094V18.5906C177.553 10.9368 174.825 7.518 169.14 7.518C163.455 7.518 160.729 10.9368 160.729 18.5906V26.4116C160.729 34.0676 163.455 37.482 169.14 37.482C174.827 37.482 177.553 34.0632 177.553 26.4094ZM169.14 0.5C178.712 0.5 185.677 5.8328 185.677 18.5906V26.4116C185.677 39.1672 178.712 44.5 169.14 44.5C159.57 44.5 152.605 39.1672 152.605 26.4116V18.5906C152.605 5.8328 159.568 0.5 169.14 0.5ZM217.877 26.4116V18.5906C217.877 10.9368 215.151 7.518 209.468 7.518C203.779 7.518 201.053 10.9368 201.053 18.5906V26.4116C201.053 34.0676 203.781 37.482 209.468 37.482C215.151 37.482 217.877 34.0654 217.877 26.4116ZM209.468 0.5C219.038 0.5 226.001 5.8328 226.001 18.5906V26.4116C226.001 39.1672 219.04 44.5 209.468 44.5C199.894 44.5 192.929 39.1672 192.929 26.4116V18.5906C192.929 5.8328 199.894 0.5 209.468 0.5ZM268.241 0.9664C269.522 0.9664 270.567 2.0092 270.567 3.2852V43.1646C270.567 43.7454 270.102 44.0358 269.577 44.0358H263.72C263.197 44.0358 262.787 43.4572 262.787 42.8764V15.922C262.787 15.5172 262.732 15.3434 262.616 15.3434C262.559 15.3434 262.44 15.5172 262.323 15.6954L256.757 26.7636C256.405 27.4016 255.651 27.747 254.898 27.747H249.04C248.285 27.747 247.533 27.4016 247.181 26.7636L241.555 15.6932C241.439 15.5172 241.322 15.3412 241.265 15.3412C241.148 15.3412 241.091 15.5172 241.091 15.922V42.8786C241.091 43.4594 240.686 44.038 240.163 44.038H234.302C233.78 44.038 233.316 43.7476 233.316 43.1668V3.2852C233.316 2.0092 234.359 0.9664 235.637 0.9664H240.394C241.322 0.9664 242.136 1.545 242.539 2.359L251.303 20.0954C251.594 20.6168 251.706 20.905 251.941 20.905C252.172 20.905 252.287 20.619 252.579 20.0954L261.34 2.359C261.747 1.545 262.559 0.9664 263.485 0.9664H268.241Z" fill="#FF7133"/>
<path d="M319.261 41.3749H313.717V22.7189H311.033V39.6149H305.753V2.7869H311.033V18.0549H313.717V2.1709H319.261V41.3749ZM303.861 25.5349C303.861 30.1109 300.341 33.5869 295.193 33.5869C289.825 33.5869 286.437 30.0669 286.437 25.5349C286.437 20.9149 290.001 17.4829 295.193 17.4829C300.341 17.4829 303.861 20.9589 303.861 25.5349ZM285.645 16.3389V11.8069H304.477V16.3389H285.645ZM290.089 9.7389V5.1629H300.605V9.7389H290.089ZM298.713 25.5349C298.713 23.4669 297.217 21.7949 295.193 21.7949C293.125 21.7949 291.541 23.4229 291.541 25.5349C291.541 27.7349 293.125 29.2749 295.193 29.2749C297.217 29.2749 298.713 27.6469 298.713 25.5349ZM354.813 40.9349H328.325V28.1309H338.709V24.6549H323.881V20.0789H359.301V24.6549H344.473V28.1309H354.813V40.9349ZM357.629 14.1389L355.297 18.7589C350.149 18.4509 344.033 15.7229 341.569 11.6749C339.501 15.8549 333.429 18.4069 327.753 18.7149L325.465 14.2269C331.537 14.0509 336.421 11.3669 337.829 8.0669H327.357V3.5349H356.089V8.0669H345.309C347.025 11.3669 352.657 14.0949 357.629 14.1389ZM349.093 36.4469V32.5309H334.089V36.4469H349.093Z" fill="#495057"/>
</g>
<defs>
<clipPath id="clip0_2111_5878">
<rect width="358.6" height="44" fill="white" transform="translate(0.699219 0.5)"/>
</clipPath>
</defs>
</svg>
