<svg width="270" height="44" viewBox="0 0 270 44" fill="none" xmlns="http://www.w3.org/2000/svg">
<g clip-path="url(#clip0_2201_6009)">
<path fill-rule="evenodd" clip-rule="evenodd" d="M31.4468 0.4664C32.0848 0.4664 32.6062 0.9284 32.6062 1.5708V42.3764C32.6045 42.6834 32.4818 42.9773 32.2647 43.1943C32.0477 43.4114 31.7538 43.5341 31.4468 43.5358H25.7026C25.3956 43.5341 25.1018 43.4114 24.8847 43.1943C24.6676 42.9773 24.5449 42.6834 24.5432 42.3764V24.64H8.0652V42.3764C8.06346 42.6837 7.94045 42.978 7.72292 43.1951C7.50539 43.4122 7.21094 43.5346 6.9036 43.5358H1.1616C0.854261 43.5346 0.559806 43.4122 0.342277 43.1951C0.124747 42.978 0.0017375 42.6837 0 42.3764L0 1.5708C0 0.9284 0.5214 0.4664 1.1594 0.4664H6.9036C7.5416 0.4664 8.0652 0.9284 8.0652 1.5708V17.5648H24.5432V1.5708C24.5432 0.9284 25.0646 0.4664 25.7026 0.4664H31.4468ZM52.3952 24.9304H62.6054L58.4276 7.711C58.2538 7.018 58.08 6.7848 57.4992 6.7848C56.9206 6.7848 56.7468 7.018 56.573 7.711L52.393 24.9282L52.3952 24.9304ZM65.5644 5.9136L75.0816 42.2576C75.0816 42.3742 75.1388 42.4908 75.1388 42.548C75.1388 43.1288 74.6746 43.538 74.096 43.538H67.9426C67.4234 43.538 66.957 43.0716 66.8426 42.548L64.1718 31.5392H50.8288L48.158 42.548C48.0414 43.0716 47.5772 43.538 47.0536 43.538H40.9068C40.326 43.538 39.8596 43.1288 39.8596 42.548C39.8596 42.4908 39.9168 42.3742 39.9168 42.2598L49.434 5.9136C50.8288 0.5236 55.0066 0 57.4992 0C59.994 0 64.1718 0.5258 65.5644 5.9136ZM106.762 0.814C107.633 0.9284 107.923 1.2166 107.923 2.0284V5.742C107.922 6.04972 107.799 6.3445 107.582 6.5621C107.364 6.77969 107.069 6.90244 106.762 6.9036H94.9256C91.5596 6.9036 90.343 8.0608 90.343 11.8888V18.15H106.064C106.704 18.15 107.224 18.6714 107.224 19.3072V23.4806C107.224 24.1186 106.704 24.64 106.064 24.64H90.343V32.1156C90.343 35.9436 91.5596 37.1008 94.9256 37.1008H106.762C107.069 37.102 107.364 37.2247 107.582 37.4423C107.799 37.6599 107.922 37.9547 107.923 38.2624V41.9716C107.923 42.7856 107.633 43.0738 106.762 43.1882C104.907 43.4786 102.643 44.0022 95.7352 44.0022C88.1936 44.0022 82.3372 41.9716 82.3372 32.1156V11.8866C82.335 2.0306 88.1914 0 95.733 0C102.641 0 104.907 0.5236 106.762 0.814ZM143.491 36.4606C144.129 36.4606 144.65 36.8676 144.65 37.5034V42.3742C144.649 42.6813 144.526 42.9756 144.309 43.1927C144.092 43.4099 143.798 43.5324 143.491 43.5336H118.133C116.45 43.5336 115.177 42.9528 115.177 41.3908V38.2008C115.177 37.5034 115.353 36.8676 115.931 35.9986L134.323 8.4634C134.432 8.3118 134.492 8.13069 134.495 7.9442C134.495 7.6516 134.321 7.48 133.918 7.48H117.786C117.148 7.48 116.686 7.073 116.686 6.4372V1.5686C116.686 0.9306 117.148 0.4642 117.786 0.4642H141.167C142.85 0.4642 144.243 1.1616 144.243 2.6708V6.0324C144.243 6.8398 143.893 7.711 143.431 8.4084L125.334 35.4794C125.188 35.6608 125.106 35.8848 125.099 36.1174C125.099 36.3462 125.215 36.4628 125.622 36.4628H143.493L143.491 36.4606ZM176.854 25.9094V18.0906C176.854 10.4368 174.126 7.018 168.441 7.018C162.756 7.018 160.03 10.4368 160.03 18.0906V25.9116C160.03 33.5676 162.756 36.982 168.441 36.982C174.128 36.982 176.854 33.5632 176.854 25.9094ZM168.441 0C178.013 0 184.978 5.3328 184.978 18.0906V25.9116C184.978 38.6672 178.013 44 168.441 44C158.871 44 151.906 38.6672 151.906 25.9116V18.0906C151.906 5.3328 158.869 0 168.441 0ZM217.177 25.9116V18.0906C217.177 10.4368 214.452 7.018 208.769 7.018C203.08 7.018 200.354 10.4368 200.354 18.0906V25.9116C200.354 33.5676 203.082 36.982 208.769 36.982C214.452 36.982 217.177 33.5654 217.177 25.9116ZM208.769 0C218.339 0 225.302 5.3328 225.302 18.0906V25.9116C225.302 38.6672 218.341 44 208.769 44C199.195 44 192.229 38.6672 192.229 25.9116V18.0906C192.229 5.3328 199.195 0 208.769 0ZM267.542 0.4664C268.822 0.4664 269.867 1.5092 269.867 2.7852V42.6646C269.867 43.2454 269.403 43.5358 268.877 43.5358H263.021C262.497 43.5358 262.088 42.9572 262.088 42.3764V15.422C262.088 15.0172 262.033 14.8434 261.917 14.8434C261.859 14.8434 261.741 15.0172 261.624 15.1954L256.058 26.2636C255.706 26.9016 254.951 27.247 254.199 27.247H248.34C247.586 27.247 246.833 26.9016 246.481 26.2636L240.856 15.1932C240.739 15.0172 240.623 14.8412 240.566 14.8412C240.449 14.8412 240.392 15.0172 240.392 15.422V42.3786C240.392 42.9594 239.987 43.538 239.463 43.538H233.603C233.081 43.538 232.617 43.2476 232.617 42.6668V2.7852C232.617 1.5092 233.66 0.4664 234.938 0.4664H239.694C240.623 0.4664 241.437 1.045 241.839 1.859L250.604 19.5954C250.895 20.1168 251.007 20.405 251.242 20.405C251.473 20.405 251.588 20.119 251.88 19.5954L260.641 1.859C261.048 1.045 261.859 0.4664 262.786 0.4664H267.542Z" fill="#FF7133"/>
</g>
<defs>
<clipPath id="clip0_2201_6009">
<rect width="270" height="44" fill="white"/>
</clipPath>
</defs>
</svg>
