<svg width="48" height="49" viewBox="0 0 48 49" fill="none" xmlns="http://www.w3.org/2000/svg">
<mask id="mask0_64_1239" style="mask-type:alpha" maskUnits="userSpaceOnUse" x="0" y="0" width="48" height="49">
<rect y="0.5" width="48" height="48" fill="#D9D9D9"/>
</mask>
<g mask="url(#mask0_64_1239)">
<path d="M4 38.5V35.5H24V38.5H4ZM4 28V25H14V28H4ZM4 17.5V14.5H14V17.5H4ZM41.9 38.5L33.9 30.5C33.0333 31.1667 32.1 31.6667 31.1 32C30.1 32.3333 29.0667 32.5 28 32.5C25.2333 32.5 22.875 31.525 20.925 29.575C18.975 27.625 18 25.2667 18 22.5C18 19.7333 18.975 17.375 20.925 15.425C22.875 13.475 25.2333 12.5 28 12.5C30.7667 12.5 33.125 13.475 35.075 15.425C37.025 17.375 38 19.7333 38 22.5C38 23.5667 37.8333 24.6 37.5 25.6C37.1667 26.6 36.6667 27.5333 36 28.4L44 36.4L41.9 38.5ZM27.988 29.5C29.9293 29.5 31.5833 28.8207 32.95 27.462C34.3167 26.103 35 24.453 35 22.512C35 20.5707 34.3207 18.9167 32.962 17.55C31.603 16.1833 29.953 15.5 28.012 15.5C26.0707 15.5 24.4167 16.1793 23.05 17.538C21.6833 18.897 21 20.547 21 22.488C21 24.4293 21.6793 26.0833 23.038 27.45C24.397 28.8167 26.047 29.5 27.988 29.5Z" fill="white"/>
</g>
</svg>
