<svg width="24" height="24" viewBox="0 0 24 24" fill="none" xmlns="http://www.w3.org/2000/svg">
<mask id="mask0_2204_6065" style="mask-type:alpha" maskUnits="userSpaceOnUse" x="0" y="0" width="24" height="24">
<rect width="24" height="24" fill="#D9D9D9"/>
</mask>
<g mask="url(#mask0_2204_6065)">
<path d="M21.2034 6.91638V18.9284C21.2034 19.558 20.9816 20.0946 20.5381 20.5381C20.0946 20.9816 19.558 21.2034 18.9284 21.2034H5.07187C4.44221 21.2034 3.90562 20.9816 3.46212 20.5381C3.01862 20.0946 2.79688 19.558 2.79688 18.9284V5.07188C2.79688 4.44221 3.01862 3.90562 3.46212 3.46212C3.90562 3.01862 4.44221 2.79688 5.07187 2.79688H17.0839L21.2034 6.91638ZM18.9284 7.88013L16.1201 5.07188H5.07187V18.9284H18.9284V7.88013ZM12.0001 17.9284C12.8335 17.9284 13.5418 17.6367 14.1251 17.0534C14.7085 16.47 15.0001 15.7617 15.0001 14.9284C15.0001 14.095 14.7085 13.3867 14.1251 12.8034C13.5418 12.22 12.8335 11.9284 12.0001 11.9284C11.1668 11.9284 10.4585 12.22 9.87513 12.8034C9.29179 13.3867 9.00013 14.095 9.00013 14.9284C9.00013 15.7617 9.29179 16.47 9.87513 17.0534C10.4585 17.6367 11.1668 17.9284 12.0001 17.9284ZM6.07188 10.0719H15.0719V6.07188H6.07188V10.0719Z" fill="white"/>
</g>
</svg>
