<svg width="24" height="24" viewBox="0 0 24 24" fill="none" xmlns="http://www.w3.org/2000/svg">
<mask id="mask0_2198_6008" style="mask-type:alpha" maskUnits="userSpaceOnUse" x="0" y="0" width="24" height="24">
<rect width="24" height="24" fill="#D9D9D9"/>
</mask>
<g mask="url(#mask0_2198_6008)">
<path d="M9.07725 22.2034L8.66525 18.9376C8.48042 18.8663 8.30508 18.7802 8.13925 18.6794C7.97358 18.5787 7.811 18.4717 7.6515 18.3584L4.61675 19.6381L1.6875 14.5654L4.31025 12.5794C4.29758 12.4787 4.29125 12.3822 4.29125 12.2899V11.7104C4.29125 11.618 4.29758 11.5215 4.31025 11.4209L1.6875 9.43488L4.61675 4.37413L7.6635 5.64787C7.823 5.53454 7.98675 5.42846 8.15475 5.32962C8.32292 5.23096 8.49308 5.14596 8.66525 5.07462L9.07725 1.79688H14.9238L15.3357 5.07462C15.5206 5.14596 15.6959 5.23096 15.8618 5.32962C16.0274 5.42846 16.19 5.53454 16.3495 5.64787L19.3843 4.37413L22.3135 9.43488L19.6848 11.4209C19.6974 11.5215 19.7038 11.618 19.7038 11.7104V12.0001C19.7038 12.1008 19.7028 12.1974 19.7008 12.2899C19.6988 12.3822 19.6851 12.4787 19.6597 12.5794L22.2885 14.5654L19.3533 19.6381L16.3375 18.3584C16.178 18.4717 16.0143 18.5787 15.8463 18.6794C15.6781 18.7802 15.5079 18.8663 15.3357 18.9376L14.9238 22.2034H9.07725ZM12.0325 15.5001C12.9992 15.5001 13.8242 15.1585 14.5075 14.4751C15.1908 13.7918 15.5325 12.9668 15.5325 12.0001C15.5325 11.0335 15.1908 10.2085 14.5075 9.52513C13.8242 8.84179 12.9992 8.50013 12.0325 8.50013C11.0532 8.50013 10.225 8.84179 9.548 9.52513C8.871 10.2085 8.5325 11.0335 8.5325 12.0001C8.5325 12.9668 8.871 13.7918 9.548 14.4751C10.225 15.1585 11.0532 15.5001 12.0325 15.5001Z" fill="white"/>
</g>
</svg>
